<mxfile host="app.diagrams.net" agent="Mozilla/5.0 (Windows NT 10.0; Win64; x64) AppleWebKit/537.36 (KHTML, like Gecko) Chrome/129.0.0.0 Safari/537.36 Edg/129.0.0.0" version="24.7.17">
  <diagram name="Page-1" id="mkKhUcKm5UyrQR3RTK5K">
    <mxGraphModel dx="1213" dy="669" grid="0" gridSize="5" guides="1" tooltips="1" connect="1" arrows="1" fold="1" page="0" pageScale="1" pageWidth="850" pageHeight="1100" background="none" math="0" shadow="0">
      <root>
        <mxCell id="0" />
        <mxCell id="1" parent="0" />
        <mxCell id="4ZR0F3iuvw6Yy7JSShZN-8" value="" style="edgeStyle=orthogonalEdgeStyle;rounded=0;orthogonalLoop=1;jettySize=auto;html=1;" edge="1" parent="1" source="4ZR0F3iuvw6Yy7JSShZN-1" target="4ZR0F3iuvw6Yy7JSShZN-2">
          <mxGeometry relative="1" as="geometry" />
        </mxCell>
        <mxCell id="4ZR0F3iuvw6Yy7JSShZN-1" value="初始化" style="rounded=0;whiteSpace=wrap;html=1;gradientColor=none;fillColor=none;strokeColor=default;" vertex="1" parent="1">
          <mxGeometry x="240" y="100" width="120" height="60" as="geometry" />
        </mxCell>
        <mxCell id="4ZR0F3iuvw6Yy7JSShZN-12" value="" style="edgeStyle=orthogonalEdgeStyle;rounded=0;orthogonalLoop=1;jettySize=auto;html=1;" edge="1" parent="1" source="4ZR0F3iuvw6Yy7JSShZN-2" target="4ZR0F3iuvw6Yy7JSShZN-3">
          <mxGeometry relative="1" as="geometry" />
        </mxCell>
        <mxCell id="4ZR0F3iuvw6Yy7JSShZN-2" value="就绪" style="rounded=0;whiteSpace=wrap;html=1;" vertex="1" parent="1">
          <mxGeometry x="240" y="200" width="120" height="60" as="geometry" />
        </mxCell>
        <mxCell id="4ZR0F3iuvw6Yy7JSShZN-14" value="" style="edgeStyle=orthogonalEdgeStyle;rounded=0;orthogonalLoop=1;jettySize=auto;html=1;" edge="1" parent="1" source="4ZR0F3iuvw6Yy7JSShZN-3" target="4ZR0F3iuvw6Yy7JSShZN-4">
          <mxGeometry relative="1" as="geometry" />
        </mxCell>
        <mxCell id="4ZR0F3iuvw6Yy7JSShZN-3" value="备用" style="rounded=0;whiteSpace=wrap;html=1;" vertex="1" parent="1">
          <mxGeometry x="240" y="300" width="120" height="60" as="geometry" />
        </mxCell>
        <mxCell id="4ZR0F3iuvw6Yy7JSShZN-16" value="" style="edgeStyle=orthogonalEdgeStyle;rounded=0;orthogonalLoop=1;jettySize=auto;html=1;" edge="1" parent="1" source="4ZR0F3iuvw6Yy7JSShZN-4" target="4ZR0F3iuvw6Yy7JSShZN-5">
          <mxGeometry relative="1" as="geometry" />
        </mxCell>
        <mxCell id="4ZR0F3iuvw6Yy7JSShZN-24" value="" style="edgeStyle=orthogonalEdgeStyle;rounded=0;orthogonalLoop=1;jettySize=auto;html=1;" edge="1" parent="1" source="4ZR0F3iuvw6Yy7JSShZN-4" target="4ZR0F3iuvw6Yy7JSShZN-7">
          <mxGeometry relative="1" as="geometry" />
        </mxCell>
        <mxCell id="4ZR0F3iuvw6Yy7JSShZN-32" style="edgeStyle=orthogonalEdgeStyle;rounded=0;orthogonalLoop=1;jettySize=auto;html=1;exitX=1;exitY=0.5;exitDx=0;exitDy=0;entryX=1;entryY=0.5;entryDx=0;entryDy=0;" edge="1" parent="1" source="4ZR0F3iuvw6Yy7JSShZN-4" target="4ZR0F3iuvw6Yy7JSShZN-2">
          <mxGeometry relative="1" as="geometry">
            <Array as="points">
              <mxPoint x="510" y="430" />
              <mxPoint x="510" y="230" />
            </Array>
          </mxGeometry>
        </mxCell>
        <mxCell id="4ZR0F3iuvw6Yy7JSShZN-4" value="运行" style="rounded=0;whiteSpace=wrap;html=1;" vertex="1" parent="1">
          <mxGeometry x="240" y="400" width="120" height="60" as="geometry" />
        </mxCell>
        <mxCell id="4ZR0F3iuvw6Yy7JSShZN-18" value="" style="edgeStyle=orthogonalEdgeStyle;rounded=0;orthogonalLoop=1;jettySize=auto;html=1;" edge="1" parent="1" source="4ZR0F3iuvw6Yy7JSShZN-5" target="4ZR0F3iuvw6Yy7JSShZN-6">
          <mxGeometry relative="1" as="geometry" />
        </mxCell>
        <mxCell id="4ZR0F3iuvw6Yy7JSShZN-20" style="edgeStyle=orthogonalEdgeStyle;rounded=0;orthogonalLoop=1;jettySize=auto;html=1;exitX=1;exitY=0.5;exitDx=0;exitDy=0;entryX=1;entryY=0.5;entryDx=0;entryDy=0;" edge="1" parent="1" source="4ZR0F3iuvw6Yy7JSShZN-5" target="4ZR0F3iuvw6Yy7JSShZN-2">
          <mxGeometry relative="1" as="geometry">
            <Array as="points">
              <mxPoint x="510" y="530" />
              <mxPoint x="510" y="230" />
            </Array>
          </mxGeometry>
        </mxCell>
        <mxCell id="4ZR0F3iuvw6Yy7JSShZN-5" value="等待" style="rounded=0;whiteSpace=wrap;html=1;" vertex="1" parent="1">
          <mxGeometry x="240" y="500" width="120" height="60" as="geometry" />
        </mxCell>
        <mxCell id="4ZR0F3iuvw6Yy7JSShZN-22" style="edgeStyle=orthogonalEdgeStyle;rounded=0;orthogonalLoop=1;jettySize=auto;html=1;exitX=1;exitY=0.5;exitDx=0;exitDy=0;entryX=1;entryY=0.5;entryDx=0;entryDy=0;" edge="1" parent="1" source="4ZR0F3iuvw6Yy7JSShZN-6" target="4ZR0F3iuvw6Yy7JSShZN-2">
          <mxGeometry relative="1" as="geometry">
            <Array as="points">
              <mxPoint x="510" y="630" />
              <mxPoint x="510" y="230" />
            </Array>
          </mxGeometry>
        </mxCell>
        <mxCell id="4ZR0F3iuvw6Yy7JSShZN-6" value="传输" style="rounded=0;whiteSpace=wrap;html=1;" vertex="1" parent="1">
          <mxGeometry x="240" y="600" width="120" height="60" as="geometry" />
        </mxCell>
        <mxCell id="4ZR0F3iuvw6Yy7JSShZN-28" style="edgeStyle=orthogonalEdgeStyle;rounded=0;orthogonalLoop=1;jettySize=auto;html=1;exitX=0.5;exitY=0;exitDx=0;exitDy=0;entryX=0;entryY=0.5;entryDx=0;entryDy=0;" edge="1" parent="1" source="4ZR0F3iuvw6Yy7JSShZN-7" target="4ZR0F3iuvw6Yy7JSShZN-1">
          <mxGeometry relative="1" as="geometry" />
        </mxCell>
        <mxCell id="4ZR0F3iuvw6Yy7JSShZN-7" value="终止" style="rounded=0;whiteSpace=wrap;html=1;" vertex="1" parent="1">
          <mxGeometry x="60" y="400" width="120" height="60" as="geometry" />
        </mxCell>
        <mxCell id="4ZR0F3iuvw6Yy7JSShZN-10" style="edgeStyle=orthogonalEdgeStyle;rounded=0;orthogonalLoop=1;jettySize=auto;html=1;" edge="1" parent="1" source="4ZR0F3iuvw6Yy7JSShZN-9" target="4ZR0F3iuvw6Yy7JSShZN-1">
          <mxGeometry relative="1" as="geometry" />
        </mxCell>
        <mxCell id="4ZR0F3iuvw6Yy7JSShZN-9" value="创建和初始化" style="text;html=1;align=center;verticalAlign=middle;whiteSpace=wrap;rounded=0;" vertex="1" parent="1">
          <mxGeometry x="252.5" y="40" width="95" height="30" as="geometry" />
        </mxCell>
        <mxCell id="4ZR0F3iuvw6Yy7JSShZN-11" value="放入就需队列" style="text;html=1;align=center;verticalAlign=middle;whiteSpace=wrap;rounded=0;" vertex="1" parent="1">
          <mxGeometry x="310" y="165" width="85" height="30" as="geometry" />
        </mxCell>
        <mxCell id="4ZR0F3iuvw6Yy7JSShZN-13" value="选择执行" style="text;html=1;align=center;verticalAlign=middle;whiteSpace=wrap;rounded=0;" vertex="1" parent="1">
          <mxGeometry x="315" y="265" width="60" height="30" as="geometry" />
        </mxCell>
        <mxCell id="4ZR0F3iuvw6Yy7JSShZN-15" value="被调度进行描述表切换" style="text;html=1;align=center;verticalAlign=middle;whiteSpace=wrap;rounded=0;" vertex="1" parent="1">
          <mxGeometry x="315" y="365" width="132.5" height="30" as="geometry" />
        </mxCell>
        <mxCell id="4ZR0F3iuvw6Yy7JSShZN-17" value="线程等待对象的句柄" style="text;html=1;align=center;verticalAlign=middle;whiteSpace=wrap;rounded=0;" vertex="1" parent="1">
          <mxGeometry x="315" y="465" width="125" height="30" as="geometry" />
        </mxCell>
        <mxCell id="4ZR0F3iuvw6Yy7JSShZN-19" value="资源不可用" style="text;html=1;align=center;verticalAlign=middle;whiteSpace=wrap;rounded=0;" vertex="1" parent="1">
          <mxGeometry x="305" y="565" width="85" height="30" as="geometry" />
        </mxCell>
        <mxCell id="4ZR0F3iuvw6Yy7JSShZN-21" value="标记对象为有信号状态" style="text;html=1;align=center;verticalAlign=middle;whiteSpace=wrap;rounded=0;" vertex="1" parent="1">
          <mxGeometry x="365" y="500" width="125" height="30" as="geometry" />
        </mxCell>
        <mxCell id="4ZR0F3iuvw6Yy7JSShZN-23" value="资源可用" style="text;html=1;align=center;verticalAlign=middle;whiteSpace=wrap;rounded=0;" vertex="1" parent="1">
          <mxGeometry x="365" y="600" width="60" height="30" as="geometry" />
        </mxCell>
        <mxCell id="4ZR0F3iuvw6Yy7JSShZN-25" value="执行完成" style="text;html=1;align=center;verticalAlign=middle;whiteSpace=wrap;rounded=0;" vertex="1" parent="1">
          <mxGeometry x="180" y="400" width="60" height="30" as="geometry" />
        </mxCell>
        <mxCell id="4ZR0F3iuvw6Yy7JSShZN-26" value="" style="endArrow=classic;html=1;rounded=0;entryX=0.25;entryY=1;entryDx=0;entryDy=0;exitX=0.25;exitY=0;exitDx=0;exitDy=0;" edge="1" parent="1" source="4ZR0F3iuvw6Yy7JSShZN-3" target="4ZR0F3iuvw6Yy7JSShZN-2">
          <mxGeometry width="50" height="50" relative="1" as="geometry">
            <mxPoint x="330" y="340" as="sourcePoint" />
            <mxPoint x="380" y="290" as="targetPoint" />
          </mxGeometry>
        </mxCell>
        <mxCell id="4ZR0F3iuvw6Yy7JSShZN-27" value="被抢先" style="text;html=1;align=center;verticalAlign=middle;whiteSpace=wrap;rounded=0;" vertex="1" parent="1">
          <mxGeometry x="210" y="265" width="60" height="30" as="geometry" />
        </mxCell>
        <mxCell id="4ZR0F3iuvw6Yy7JSShZN-29" value="重新初始化" style="text;html=1;align=center;verticalAlign=middle;whiteSpace=wrap;rounded=0;" vertex="1" parent="1">
          <mxGeometry x="45" y="370" width="70" height="30" as="geometry" />
        </mxCell>
        <mxCell id="4ZR0F3iuvw6Yy7JSShZN-30" value="" style="endArrow=classic;html=1;rounded=0;entryX=0.25;entryY=1;entryDx=0;entryDy=0;exitX=0.25;exitY=0;exitDx=0;exitDy=0;" edge="1" parent="1">
          <mxGeometry width="50" height="50" relative="1" as="geometry">
            <mxPoint x="270" y="500" as="sourcePoint" />
            <mxPoint x="270" y="460" as="targetPoint" />
          </mxGeometry>
        </mxCell>
        <mxCell id="4ZR0F3iuvw6Yy7JSShZN-31" value="等待完成" style="text;html=1;align=center;verticalAlign=middle;whiteSpace=wrap;rounded=0;" vertex="1" parent="1">
          <mxGeometry x="210" y="465" width="60" height="30" as="geometry" />
        </mxCell>
        <mxCell id="4ZR0F3iuvw6Yy7JSShZN-33" value="被抢先或时间片用完" style="text;html=1;align=center;verticalAlign=middle;whiteSpace=wrap;rounded=0;" vertex="1" parent="1">
          <mxGeometry x="360" y="405" width="130" height="30" as="geometry" />
        </mxCell>
      </root>
    </mxGraphModel>
  </diagram>
</mxfile>
